<?xml version="1.0" standalone="no"?>
<!DOCTYPE svg PUBLIC "-//W3C//DTD SVG 20010904//EN"
 "http://www.w3.org/TR/2001/REC-SVG-20010904/DTD/svg10.dtd">
<svg version="1.0" xmlns="http://www.w3.org/2000/svg"
 width="1920.000000pt" height="1508.000000pt" viewBox="0 0 1920.000000 1508.000000"
 preserveAspectRatio="xMidYMid meet">
<metadata>
Created by potrace 1.13, written by Peter Selinger 2001-2015
</metadata>
<g transform="translate(0.000000,1508.000000) scale(0.100000,-0.100000)"
fill="#000000" stroke="none">
<path d="M16805 14531 c-550 -100 -991 -424 -1230 -900 -26 -53 -1176 -2938
-1506 -3779 -9 -23 -9 -22 -81 26 -208 140 -430 227 -698 273 -41 7 -149 13
-240 13 -91 0 -199 -6 -240 -13 -264 -46 -493 -133 -687 -263 l-80 -54 -18 75
c-44 189 -133 392 -243 557 -242 362 -608 606 -1057 706 -87 19 -129 22 -325
22 -248 0 -324 -11 -520 -74 -128 -42 -338 -145 -433 -214 -43 -31 -80 -56
-81 -56 -2 0 -9 28 -16 63 -57 293 -220 596 -444 825 -305 314 -690 484 -1128
499 -191 7 -308 -5 -475 -47 -301 -76 -560 -225 -783 -450 -129 -130 -221
-258 -299 -415 -33 -66 -198 -468 -366 -894 -168 -426 -309 -780 -313 -786 -4
-6 -427 416 -1041 1040 -569 577 -1075 1087 -1125 1133 -641 584 -1644 569
-2276 -34 -614 -587 -688 -1553 -171 -2229 34 -44 699 -728 1479 -1519 1179
-1197 1417 -1444 1416 -1465 -1 -14 -7 -101 -14 -192 -16 -211 -8 -667 15
-879 161 -1488 899 -2705 2145 -3537 641 -428 1410 -751 2320 -976 611 -151
1339 -261 1970 -298 260 -15 824 -7 1050 16 1346 132 2418 606 3298 1460 825
799 1426 1885 1806 3264 158 571 287 1313 326 1866 6 88 12 180 14 205 2 30
311 821 946 2420 518 1306 952 2407 965 2446 167 510 67 1091 -264 1529 -103
137 -285 305 -433 399 -157 100 -366 184 -563 226 -144 32 -458 37 -600 11z
m461 -496 c233 -40 436 -141 607 -304 190 -180 322 -432 358 -680 18 -129 7
-354 -24 -466 -14 -49 -461 -1188 -993 -2530 l-968 -2440 3 -80 c4 -156 -43
-603 -104 -980 -126 -779 -344 -1529 -630 -2175 -760 -1714 -1985 -2757 -3625
-3084 -411 -83 -726 -111 -1225 -110 -417 0 -610 12 -1030 65 -2102 265 -3611
990 -4489 2159 -575 764 -868 1719 -843 2740 7 261 28 471 57 554 10 30 15 56
11 58 -21 8 -3009 3050 -3052 3107 -70 93 -164 286 -196 406 -25 93 -27 114
-27 300 0 187 2 206 28 300 131 479 531 816 1026 865 311 31 638 -73 872 -277
98 -85 2308 -2332 2308 -2346 0 -7 -44 -125 -99 -263 -180 -455 -196 -525
-196 -834 1 -185 4 -230 23 -320 131 -604 534 -1068 1101 -1264 491 -170 1041
-97 1481 198 l95 64 17 -77 c38 -180 130 -399 231 -554 372 -571 1046 -858
1718 -731 196 37 443 137 607 247 l82 55 6 -26 c96 -450 369 -846 747 -1085
161 -103 403 -196 602 -233 151 -28 462 -26 604 5 345 74 643 232 874 465 139
141 270 328 341 491 75 174 1071 2702 1091 2772 51 174 60 245 59 468 0 179
-3 225 -23 315 -42 197 -117 393 -210 544 l-42 70 777 1960 c427 1079 795
1997 818 2041 160 312 488 550 838 609 112 19 286 19 394 1z m-9360 -2310
c298 -51 563 -213 750 -460 66 -88 159 -283 191 -400 25 -92 27 -116 27 -295
1 -173 -2 -205 -22 -283 -28 -106 -1068 -2734 -1119 -2827 -84 -155 -215 -302
-356 -398 -105 -72 -261 -145 -382 -178 -93 -26 -113 -28 -295 -28 -180 0
-203 2 -295 27 -120 32 -313 126 -406 196 -201 153 -366 397 -428 635 -51 193
-53 409 -8 586 21 82 1003 2581 1088 2769 69 152 209 324 350 430 91 69 269
161 366 190 169 51 374 64 539 36z m2777 -1059 c376 -97 675 -366 813 -733 79
-210 94 -475 38 -689 -12 -47 -574 -1475 -1038 -2640 -88 -219 -151 -321 -280
-449 -153 -153 -332 -255 -543 -312 -90 -25 -114 -27 -293 -27 -167 0 -206 3
-270 21 -253 70 -456 196 -609 375 -252 295 -345 690 -251 1059 19 74 1025
2628 1091 2769 134 287 416 524 735 615 131 37 193 44 359 40 120 -3 170 -8
248 -29z m2583 -1022 c230 -41 449 -159 616 -333 154 -158 252 -336 306 -550
23 -94 26 -125 26 -271 0 -139 -4 -180 -23 -260 -25 -102 -1042 -2684 -1111
-2820 -258 -510 -870 -761 -1412 -580 -237 79 -461 248 -598 449 -187 276
-251 638 -170 956 24 96 1056 2700 1113 2809 203 392 645 643 1087 619 47 -2
121 -11 166 -19z"/>
</g>
</svg>
